<svg xmlns="http://www.w3.org/2000/svg" viewBox="0 0 80 32" width="80" height="32">
  <defs>
    <linearGradient id="g" x1="0%" y1="0%" x2="100%" y2="100%">
      <stop offset="0%" stop-color="#7C3AED"/>
      <stop offset="100%" stop-color="#A78BFA"/>
    </linearGradient>
  </defs>
  <g transform="translate(2 4)">
    <path fill="url(#g)" d="M9.19 6.35c-2.04 2.29-3.44 5.58-3.57 5.89L2 10.69l4.05-4.05c.47-.47 1.15-.68 1.81-.55l1.33.26zM11.17 17s3.74-1.55 5.89-3.7c5.4-5.4 4.5-9.62 4.21-10.57-.95-.3-5.17-1.19-10.57 4.21C8.55 9.09 7 12.83 7 12.83L11.17 17zm6.48-2.19c-2.29 2.04-5.58 3.44-5.89 3.57L13.31 22l4.05-4.05c.47-.47.68-1.15.55-1.81l-.26-1.33zM9 12c0-1.66 1.34-3 3-3s3 1.34 3 3-1.34 3-3 3-3-1.34-3-3z"/>
  </g>
  <text x="30" y="23" font-family="system-ui, -apple-system, sans-serif" font-size="20" font-weight="800" fill="url(#g)" letter-spacing="-0.5">creo</text>
</svg>
